<?xml version="1.0" encoding="UTF-8"?>
<svg width="15px" height="16px" viewBox="0 0 15 16" version="1.1" xmlns="http://www.w3.org/2000/svg" xmlns:xlink="http://www.w3.org/1999/xlink">
    <title>Fill 1</title>
    <g id="Page-1" stroke="none" stroke-width="1" fill="none" fill-rule="evenodd">
        <g id="Landing-page-option-1" transform="translate(-227.000000, -746.000000)" fill="#7D8DA6">
            <g id="menu-navigation" transform="translate(0.000000, 728.000000)">
                <g id="Group-3" transform="translate(227.000000, 18.000000)">
                    <path d="M1.08741684,6.20991405 C1.08741684,3.40935207 3.28944243,1.12396364 6.00799254,1.12396364 C8.71749147,1.12396364 10.9285682,3.39999669 10.9285682,6.20991405 C10.9285682,9.0198314 8.72654264,11.2958645 6.00799254,11.2958645 C3.28944243,11.2958645 1.08741684,9.01047603 1.08741684,6.20991405 L1.08741684,6.20991405 Z M10.4120437,10.4247901 C11.3997729,9.31956694 12.0159883,7.83966612 12.0159883,6.20991405 C12.0159883,2.79117025 9.32462367,-3.30578513e-06 6.00799254,-3.30578513e-06 C2.69136141,-3.30578513e-06 -3.19829424e-06,2.79117025 -3.19829424e-06,6.20991405 C-3.19829424e-06,9.62865785 2.69136141,12.4198314 6.00799254,12.4198314 C7.35821642,12.4198314 8.59966631,11.9608893 9.60552985,11.1834678 L14.0730032,15.8010876 C14.1817772,15.9134843 14.3177047,15.9696826 14.4536322,15.9696826 C14.5895597,15.9696826 14.7345064,15.9134843 14.8341972,15.8010876 C15.0426301,15.5856496 15.0426301,15.2297488 14.8341972,15.0049554 L10.4120437,10.4247901 Z" id="Fill-1"></path>
                </g>
            </g>
        </g>
    </g>
</svg>