<?xml version="1.0" encoding="UTF-8"?>
<svg width="17px" height="16px" viewBox="0 0 17 16" version="1.1" xmlns="http://www.w3.org/2000/svg" xmlns:xlink="http://www.w3.org/1999/xlink">
    <title>Group 3</title>
    <defs>
        <polygon id="path-1" points="2.6353396e-05 0.000166666667 16.9793671 0.000166666667 16.9793671 15.94882 2.6353396e-05 15.94882"></polygon>
    </defs>
    <g id="Page-1" stroke="none" stroke-width="1" fill="none" fill-rule="evenodd">
        <g id="Landing-page-option-1" transform="translate(-85.000000, -451.000000)">
            <g id="Group-10" transform="translate(20.000000, 201.000000)">
                <g id="Group-9" transform="translate(65.000000, 248.000000)">
                    <g id="Group-3" transform="translate(0.000000, 2.000000)">
                        <mask id="mask-2" fill="white">
                            <use xlink:href="#path-1"></use>
                        </mask>
                        <g id="Clip-2"></g>
                        <path d="M12.81137,10.6504667 L13.51347,14.6644667 C13.54883,14.8661333 13.46927,15.0594667 13.29995,15.1801333 C13.12995,15.3001333 12.91881,15.3148 12.73351,15.2204667 L9.05641,13.3244667 C8.87961,13.2338 8.68411,13.1874667 8.48997,13.1874667 C8.29515,13.1874667 8.10067,13.2338 7.92319,13.3248 L4.24677,15.2204667 C4.06045,15.3148 3.84931,15.3001333 3.68033,15.1801333 C3.51067,15.0594667 3.43111,14.8664667 3.46613,14.6644667 L4.16823,10.6504667 C4.23589,10.2631333 4.10533,9.86746667 3.81803,9.59346667 L0.84303,6.7508 C0.69309,6.60746667 0.64209,6.40546667 0.70703,6.21046667 C0.77163,6.01513333 0.93381,5.8808 1.14087,5.85146667 L5.25181,5.2658 C5.64859,5.20946667 5.99165,4.96546667 6.16879,4.6128 L8.00717,0.960466667 C8.09999,0.776133333 8.28019,0.6668 8.48963,0.6668 C8.69873,0.6668 8.87927,0.776133333 8.97175,0.960466667 L10.81013,4.6128 C10.98761,4.96546667 11.33033,5.20946667 11.72711,5.2658 L15.83805,5.85146667 C16.04545,5.8808 16.20729,6.01513333 16.27223,6.21046667 C16.33649,6.40546667 16.28617,6.60746667 16.13589,6.7508 L13.16123,9.59313333 C12.87461,9.86746667 12.74371,10.2628 12.81137,10.6504667 L12.81137,10.6504667 Z M16.61121,7.2278 C16.94509,6.90846667 17.06307,6.44013333 16.91891,6.00446667 C16.77441,5.56846667 16.39837,5.2578 15.93563,5.1918 L11.82469,4.60613333 C11.64925,4.58113333 11.49829,4.47346667 11.41975,4.31746667 L9.58171,0.665133333 C9.37567,0.2548 8.95645,0.000133333333 8.48997,0.000133333333 C8.02315,0.000133333333 7.60461,0.2548 7.39789,0.665133333 L5.55951,4.31746667 C5.48131,4.47346667 5.32967,4.58113333 5.15457,4.60613333 L1.04329,5.19213333 C0.58123,5.2578 0.20485,5.56846667 0.06069,6.00446667 C-0.08381,6.44013333 0.03417,6.90846667 0.36839,7.2278 L3.34305,10.0708 C3.46987,10.1921333 3.52801,10.3664667 3.49809,10.5371333 L2.79599,14.5514667 C2.71745,15.0028 2.90241,15.4494667 3.28015,15.7191333 C3.65755,15.9888 4.14885,16.0234667 4.56263,15.8101333 L8.23939,13.9148 C8.39613,13.8341333 8.58313,13.8341333 8.73987,13.9148 L12.41731,15.8101333 C12.59649,15.9028 12.79097,15.9484667 12.98477,15.9484667 C13.23569,15.9484667 13.48593,15.8711333 13.69945,15.7191333 C14.07753,15.4494667 14.26283,15.0028 14.18361,14.5514667 L13.48151,10.5374667 C13.45159,10.3664667 13.50973,10.1924667 13.63655,10.0711333 L16.61121,7.2278 Z" id="Fill-1" fill="#2C364C" mask="url(#mask-2)"></path>
                    </g>
                </g>
            </g>
        </g>
    </g>
</svg>