<?xml version="1.0" encoding="UTF-8"?>
<svg width="16px" height="17px" viewBox="0 0 16 17" version="1.1" xmlns="http://www.w3.org/2000/svg" xmlns:xlink="http://www.w3.org/1999/xlink">
    <title>Group 7</title>
    <defs>
        <polygon id="path-1" points="0.00139518102 0.0226717622 11.6198468 0.0226717622 11.6198468 2.92144374 0.00139518102 2.92144374"></polygon>
        <polygon id="path-3" points="0 0.0226581741 15.9773277 0.0226581741 15.9773277 12.3425529 0 12.3425529"></polygon>
    </defs>
    <g id="Page-1" stroke="none" stroke-width="1" fill="none" fill-rule="evenodd">
        <g id="Landing-page-option-1" transform="translate(-39.000000, -746.000000)">
            <g id="menu-navigation" transform="translate(0.000000, 728.000000)">
                <g id="Group-7" transform="translate(39.000000, 18.000000)">
                    <g id="Group-3" transform="translate(2.178723, 13.055898)">
                        <mask id="mask-2" fill="white">
                            <use xlink:href="#path-1"></use>
                        </mask>
                        <g id="Clip-2"></g>
                        <path d="M11.2567489,0.0226717622 L0.365957447,0.0226717622 C0.165617021,0.0226717622 0.0032,0.184743949 0.00282553191,0.384625053 L0.00139518102,1.44127049 C0.00105531915,1.83651465 0.15492766,2.20808153 0.434723404,2.48762293 C0.714859574,2.767538 1.08684255,2.92145732 1.4829617,2.92145732 L10.1383149,2.92145732 C10.9553362,2.92145732 11.6198468,2.25832357 11.6198468,1.44303694 L11.6198468,0.384998726 C11.6198468,0.184743949 11.4574638,0.0226717622 11.2567489,0.0226717622" id="Fill-1" fill="#3756FF" mask="url(#mask-2)"></path>
                    </g>
                    <g id="Group-6" transform="translate(0.000000, 0.011312)">
                        <mask id="mask-4" fill="white">
                            <use xlink:href="#path-3"></use>
                        </mask>
                        <g id="Clip-5"></g>
                        <path d="M11.1744681,10.036107 C11.1024681,10.1231728 10.9985702,10.1684552 10.893617,10.1684552 C10.8124255,10.1684552 10.7308596,10.1415507 10.6634894,10.086349 C10.5085277,9.95930021 10.4858213,9.7310879 10.612766,9.5764552 C11.0021447,9.10192442 11.6198468,8.15466327 11.6198468,7.6319966 C11.6198468,7.43170786 11.7822638,7.26963567 11.9829787,7.26963567 C12.1836936,7.26963567 12.3461106,7.43170786 12.3461106,7.6319966 C12.3461106,8.58350403 11.2943319,9.88996688 11.1744681,10.036107 L11.1744681,10.036107 Z M8.3517617,9.80609427 C8.3517617,10.006383 8.18934468,10.1684552 7.98862979,10.1684552 C7.78791489,10.1684552 7.62553191,10.006383 7.62553191,9.80609427 L7.62553191,7.6319966 C7.62553191,7.43170786 7.78794894,7.26963567 7.98866383,7.26963567 C8.18934468,7.26963567 8.35179574,7.43170786 8.35179574,7.6319966 L8.35179574,9.80609427 L8.3517617,9.80609427 Z M5.31417872,10.086349 C5.24643404,10.1415507 5.16490213,10.1684552 5.08405106,10.1684552 C4.97909787,10.1684552 4.87482553,10.1231728 4.80285957,10.036107 C4.68299574,9.88996688 3.63121702,8.583538 3.63121702,7.6319966 C3.63121702,7.43170786 3.79363404,7.26963567 3.99434894,7.26963567 C4.19506383,7.26963567 4.35748085,7.43170786 4.35748085,7.6319966 C4.35748085,8.15642972 4.97521702,9.10263779 5.3645617,9.57608153 C5.49147234,9.7310879 5.46914043,9.95930021 5.31417872,10.086349 L5.31417872,10.086349 Z M11.9829787,1.47206454 C11.7606468,1.47206454 11.5322553,1.49434904 11.290417,1.53929172 C10.4595745,0.572531635 9.2688,0.0226547771 7.98866383,0.0226547771 C5.5858383,0.0226547771 3.63121702,1.97312611 3.63121702,4.37085011 C3.63121702,4.57076518 3.46845957,4.73321104 3.26808511,4.73321104 C3.06774468,4.73321104 2.90495319,4.57079915 2.90495319,4.37085011 C2.90495319,3.58634055 3.08582128,2.8273087 3.44255319,2.11501996 C3.50604255,1.9883448 3.48970213,1.83653163 3.40105532,1.72612824 C3.31240851,1.61643822 3.16735319,1.56758896 3.02978723,1.60121953 C1.24575319,2.04531295 0,3.63128323 0,5.45789894 C0,6.96390318 0.85106383,8.33297325 2.18723404,9.00989894 L2.18331915,11.9798183 C2.18331915,12.0757163 2.2212766,12.1680815 2.2893617,12.2363958 C2.35778723,12.3043363 2.45000851,12.3425529 2.54645106,12.3425529 L13.4354723,12.3425529 C13.6361872,12.3425529 13.7986043,12.1804467 13.7986043,11.9801919 L13.7986043,9.00456561 C15.1298043,8.32587346 15.9773277,6.95890955 15.9773277,5.45786497 C15.9773277,3.26009002 14.1854638,1.47206454 11.9829787,1.47206454 L11.9829787,1.47206454 Z" id="Fill-4" fill="#3756FF" mask="url(#mask-4)"></path>
                    </g>
                </g>
            </g>
        </g>
    </g>
</svg>