<?xml version="1.0" encoding="UTF-8"?>
<svg width="16px" height="16px" viewBox="0 0 16 16" version="1.1" xmlns="http://www.w3.org/2000/svg" xmlns:xlink="http://www.w3.org/1999/xlink">
    <title>Group 22</title>
    <defs>
        <polygon id="path-1" points="0 0.000106666667 16 0.000106666667 16 16 0 16"></polygon>
    </defs>
    <g id="Page-1" stroke="none" stroke-width="1" fill="none" fill-rule="evenodd">
        <g id="Landing-page-option-1" transform="translate(-20.000000, -451.000000)">
            <g id="Group-10" transform="translate(20.000000, 201.000000)">
                <g id="Group-8" transform="translate(0.000000, 248.000000)">
                    <g id="Group-22" transform="translate(0.000000, 2.000000)">
                        <g id="Group-3">
                            <mask id="mask-2" fill="white">
                                <use xlink:href="#path-1"></use>
                            </mask>
                            <g id="Clip-2"></g>
                            <path d="M8,15.4667733 C3.88293333,15.4667733 0.533333333,12.1169067 0.533333333,8.00010667 C0.533333333,3.88304 3.88293333,0.53344 8,0.53344 C12.1170667,0.53344 15.4666667,3.88304 15.4666667,8.00010667 C15.4666667,12.1169067 12.1170667,15.4667733 8,15.4667733 M8,0.000106666667 C3.5888,0.000106666667 0,3.58890667 0,8.00010667 C0,12.4113067 3.5888,16.0001067 8,16.0001067 C12.4112,16.0001067 16,12.4113067 16,8.00010667 C16,3.58890667 12.4112,0.000106666667 8,0.000106666667" id="Fill-1" fill="#2C364C" mask="url(#mask-2)"></path>
                        </g>
                        <path d="M8,8.50114667 C7.70586667,8.50114667 7.46666667,8.26194667 7.46666667,7.96781333 C7.46666667,7.67341333 7.70586667,7.43448 8,7.43448 C8.29413333,7.43448 8.53333333,7.67341333 8.53333333,7.96781333 C8.53333333,8.26194667 8.29413333,8.50114667 8,8.50114667 M8.26666667,6.93901333 L8.26666667,4.23448 C8.26666667,4.08701333 8.1472,3.96781333 8,3.96781333 C7.8528,3.96781333 7.73333333,4.08701333 7.73333333,4.23448 L7.73333333,6.93901333 C7.36026667,7.03608 7.06826667,7.32808 6.9712,7.70114667 L5.06666667,7.70114667 C4.91946667,7.70114667 4.8,7.82034667 4.8,7.96781333 C4.8,8.11528 4.91946667,8.23448 5.06666667,8.23448 L6.9712,8.23448 C7.0904,8.69314667 7.50453333,9.03448 8,9.03448 C8.58826667,9.03448 9.06666667,8.55608 9.06666667,7.96781333 C9.06666667,7.47208 8.72533333,7.05821333 8.26666667,6.93901333" id="Fill-4" fill="#2C364C"></path>
                        <path d="M8,2.63434667 C8.1472,2.63434667 8.26666667,2.51514667 8.26666667,2.36768 L8.26666667,2.10101333 C8.26666667,1.95354667 8.1472,1.83434667 8,1.83434667 C7.8528,1.83434667 7.73333333,1.95354667 7.73333333,2.10101333 L7.73333333,2.36768 C7.73333333,2.51514667 7.8528,2.63434667 8,2.63434667" id="Fill-6" fill="#2C364C"></path>
                        <path d="M8,13.3011467 C7.8528,13.3011467 7.73333333,13.42008 7.73333333,13.5678133 L7.73333333,13.83448 C7.73333333,13.9819467 7.8528,14.1011467 8,14.1011467 C8.1472,14.1011467 8.26666667,13.9819467 8.26666667,13.83448 L8.26666667,13.5678133 C8.26666667,13.42008 8.1472,13.3011467 8,13.3011467" id="Fill-8" fill="#2C364C"></path>
                        <path d="M13.8666667,7.70101333 L13.6,7.70101333 C13.4528,7.70101333 13.3333333,7.82021333 13.3333333,7.96768 C13.3333333,8.11514667 13.4528,8.23434667 13.6,8.23434667 L13.8666667,8.23434667 C14.0138667,8.23434667 14.1333333,8.11514667 14.1333333,7.96768 C14.1333333,7.82021333 14.0138667,7.70101333 13.8666667,7.70101333" id="Fill-10" fill="#2C364C"></path>
                        <path d="M2.4,7.70101333 L2.13333333,7.70101333 C1.98613333,7.70101333 1.86666667,7.82021333 1.86666667,7.96768 C1.86666667,8.11514667 1.98613333,8.23434667 2.13333333,8.23434667 L2.4,8.23434667 C2.5472,8.23434667 2.66666667,8.11514667 2.66666667,7.96768 C2.66666667,7.82021333 2.5472,7.70101333 2.4,7.70101333" id="Fill-12" fill="#2C364C"></path>
                        <path d="M11.9596267,3.63069333 L11.7710933,3.81922667 C11.6668267,3.92349333 11.6668267,4.09202667 11.7710933,4.19629333 C11.8230933,4.24829333 11.89136,4.27442667 11.9596267,4.27442667 C12.02816,4.27442667 12.0964267,4.24829333 12.14816,4.19629333 L12.3366933,4.00776 C12.4412267,3.90349333 12.4412267,3.73496 12.3366933,3.63069333 C12.2324267,3.52642667 12.06416,3.52669333 11.9596267,3.63069333" id="Fill-14" fill="#2C364C"></path>
                        <path d="M3.85168,11.7389067 L3.66314667,11.92744 C3.55888,12.0317067 3.55888,12.20024 3.66314667,12.3045067 C3.71514667,12.3565067 3.78341333,12.38264 3.85168,12.38264 C3.91994667,12.38264 3.98821333,12.3565067 4.04021333,12.3045067 L4.22874667,12.1159733 C4.33301333,12.0117067 4.33301333,11.84344 4.22874667,11.7389067 C4.12448,11.63464 3.95568,11.6349067 3.85168,11.7389067" id="Fill-16" fill="#2C364C"></path>
                        <path d="M12.1481867,11.7389067 C12.04392,11.63464 11.8756533,11.63464 11.77112,11.7389067 C11.6668533,11.84344 11.6668533,12.0117067 11.77112,12.1159733 L11.9596533,12.3045067 C12.0116533,12.3565067 12.07992,12.38264 12.1481867,12.38264 C12.2164533,12.38264 12.2849867,12.3565067 12.33672,12.3045067 C12.4412533,12.20024 12.4412533,12.0317067 12.33672,11.92744 L12.1481867,11.7389067 Z" id="Fill-18" fill="#2C364C"></path>
                        <path d="M4.04024,3.63069333 C3.93597333,3.52642667 3.76744,3.52642667 3.66317333,3.63069333 C3.55890667,3.73496 3.55890667,3.90349333 3.66317333,4.00776 L3.85170667,4.19629333 C3.90370667,4.24829333 3.97197333,4.27442667 4.04024,4.27442667 C4.10850667,4.27442667 4.17677333,4.24829333 4.22877333,4.19629333 C4.33304,4.09202667 4.33304,3.92349333 4.22877333,3.81922667 L4.04024,3.63069333 Z" id="Fill-20" fill="#2C364C"></path>
                    </g>
                </g>
            </g>
        </g>
    </g>
</svg>