<?xml version="1.0" encoding="UTF-8"?>
<svg width="17px" height="16px" viewBox="0 0 17 16" version="1.1" xmlns="http://www.w3.org/2000/svg" xmlns:xlink="http://www.w3.org/1999/xlink">
    <title>Group 3</title>
    <defs>
        <polygon id="path-1" points="4.46929341e-05 3.26530612e-05 16.9989689 3.26530612e-05 16.9989689 15.7861224 4.46929341e-05 15.7861224"></polygon>
    </defs>
    <g id="Page-1" stroke="none" stroke-width="1" fill="none" fill-rule="evenodd">
        <g id="Landing-page-option-1" transform="translate(-132.000000, -746.000000)">
            <g id="menu-navigation" transform="translate(0.000000, 728.000000)">
                <g id="Group-3" transform="translate(132.000000, 18.000000)">
                    <mask id="mask-2" fill="white">
                        <use xlink:href="#path-1"></use>
                    </mask>
                    <g id="Clip-2"></g>
                    <path d="M16.9708712,4.70729796 C16.7227365,1.97946122 14.7896404,0.000359183673 12.3704096,0.000359183673 C10.7586788,0.000359183673 9.28262115,0.866644898 8.45256346,2.25505306 C7.62969808,0.848685714 6.21444808,3.26530612e-05 4.62854423,3.26530612e-05 C2.20964038,3.26530612e-05 0.276217308,1.97913469 0.0284096154,4.70697143 C0.00879423077,4.82746122 -0.0716288462,5.46158367 0.172909615,6.49570612 C0.525332692,7.98729796 1.33937115,9.34403265 2.52642885,10.4183184 L8.44864038,15.7861551 L14.4721981,10.4186449 C15.6595827,9.34403265 16.4736212,7.98762449 16.8260442,6.49570612 C17.0705827,5.4619102 16.9901596,4.82778776 16.9708712,4.70729796" id="Fill-1" fill="#7D8DA6" mask="url(#mask-2)"></path>
                </g>
            </g>
        </g>
    </g>
</svg>