<?xml version="1.0" encoding="UTF-8"?>
<svg width="18px" height="16px" viewBox="0 0 18 16" version="1.1" xmlns="http://www.w3.org/2000/svg" xmlns:xlink="http://www.w3.org/1999/xlink">
    <title>Group 17</title>
    <defs>
        <polygon id="path-1" points="0.235049704 0.567384615 13.7904828 0.567384615 13.7904828 14.9736719 0.235049704 14.9736719"></polygon>
        <polygon id="path-3" points="0 0.209476923 10.6668621 0.209476923 10.6668621 6.76886154 0 6.76886154"></polygon>
    </defs>
    <g id="Page-1" stroke="none" stroke-width="1" fill="none" fill-rule="evenodd">
        <g id="Landing-page-option-1" transform="translate(-265.000000, -82.000000)">
            <g id="Group-5" transform="translate(253.000000, 74.000000)">
                <g id="Group-17" transform="translate(12.000000, 8.000000)">
                    <g id="Group-3" transform="translate(3.724138, 0.048000)">
                        <mask id="mask-2" fill="white">
                            <use xlink:href="#path-1"></use>
                        </mask>
                        <g id="Clip-2"></g>
                        <path d="M7.4979931,7.76910769 C6.15295862,5.45956923 6.24916552,2.72295385 7.50109655,0.567253182 C6.26468276,0.565415385 5.01151034,0.869415385 3.86323448,1.52726154 C1.38916552,2.94449231 0.0807517241,5.58326154 0.24957931,8.23064615 C0.836131034,8.24972308 1.39102759,8.45649231 1.83792414,8.82695385 C2.26061379,8.59372308 2.72861379,8.47433846 3.21647586,8.47433846 C4.51557931,8.47433846 5.63902759,9.3408 5.98971724,10.5531077 C6.90585517,10.8331077 7.5519931,11.6688 7.5519931,12.6540308 C7.5519931,13.6829538 6.83385517,14.5432615 5.86992414,14.7875692 C7.59854483,15.1820308 9.47551034,14.9611077 11.1327517,14.0128 C12.2816483,13.3549538 13.1735793,12.4312615 13.7905448,11.3684923 C11.2817172,11.3635692 8.84302759,10.0780308 7.4979931,7.76910769" id="Fill-1" fill="#FFFFFF" mask="url(#mask-2)"></path>
                    </g>
                    <g id="Group-6" transform="translate(0.000000, 8.663385)">
                        <mask id="mask-4" fill="white">
                            <use xlink:href="#path-3"></use>
                        </mask>
                        <g id="Clip-5"></g>
                        <path d="M10.6668621,4.03778462 C10.6668621,3.20270769 10.0207241,2.52455385 9.19955172,2.44886154 C9.05741379,1.33009231 8.10651724,0.461169231 6.94086207,0.461169231 C6.38348276,0.461169231 5.88072414,0.665476923 5.48286207,0.992246154 C5.10982759,0.519015385 4.53631034,0.209476923 3.88396552,0.209476923 C2.91010345,0.209476923 2.09948276,0.887630769 1.89713793,1.79163077 C0.838241379,1.86486154 -0.000310344828,2.73009231 -0.000310344828,3.7984 C-0.000310344828,4.91409231 0.912724138,5.81809231 2.03803448,5.81809231 C2.27637931,5.81809231 2.50417241,5.76947692 2.71644828,5.6944 C3.08824138,6.19963077 3.68410345,6.53132308 4.36189655,6.53132308 C4.77651724,6.53132308 5.16134483,6.40701538 5.48348276,6.19593846 C5.85093103,6.54916923 6.34996552,6.76886154 6.90362069,6.76886154 C7.71734483,6.76886154 8.41375862,6.29255385 8.74024138,5.60824615 C8.84017241,5.62732308 8.94258621,5.64024615 9.04872414,5.64024615 C9.94189655,5.64024615 10.6668621,4.92209231 10.6668621,4.03778462" id="Fill-4" fill="#FFFFFF" mask="url(#mask-4)"></path>
                    </g>
                    <polygon id="Fill-7" fill="#FFFFFF" points="15.1093241 8.71138462 15.3998069 8.07753846 16.0906345 7.95630769 15.5729793 7.48553846 15.6691862 6.79569231 15.0590483 7.13969231 14.4278069 6.83569231 14.5687034 7.51815385 14.0827034 8.01907692 14.7791172 8.09784615"></polygon>
                    <polygon id="Fill-9" fill="#FFFFFF" points="1.15957241 7.00793846 1.65612414 6.75501538 2.14771034 7.01655385 2.05833103 6.47070769 2.46115862 6.08793846 1.90998621 6.00301538 1.66667586 5.50516923 1.41591724 5.99993846 0.862882759 6.07316923 1.25950345 6.46332308"></polygon>
                    <polygon id="Fill-11" fill="#FFFFFF" points="12.4380621 5.77476923 12.6646138 6.19507692 12.8638552 5.76 13.3374414 5.67753846 12.9824069 5.35507692 13.0488207 4.88246154 12.6298552 5.11753846 12.1966138 4.90892308 12.2934414 5.37723077 11.9595103 5.72"></polygon>
                    <polygon id="Fill-13" fill="#FFFFFF" points="14.719531 4.52566154 14.8591862 4.78412308 14.9808414 4.51766154 15.2725655 4.46596923 15.0540828 4.26781538 15.0944276 3.97858462 14.8368414 4.12381538 14.5730483 3.9952 14.6307724 4.28196923 14.4259448 4.49243077"></polygon>
                    <polygon id="Fill-15" fill="#FFFFFF" points="4.24421379 2.78707692 4.38324828 3.04553846 4.50552414 2.77846154 4.79662759 2.72676923 4.57876552 2.52861538 4.61911034 2.23938462 4.36214483 2.384 4.09711034 2.256 4.15607586 2.54215385 3.95062759 2.75323077"></polygon>
                </g>
            </g>
        </g>
    </g>
</svg>